<svg xmlns="http://www.w3.org/2000/svg" width="46" height="46" viewBox="0 0 46 46">
  <g fill="none" fill-rule="evenodd" transform="translate(0 -2)">
    <g stroke="#0E3FF2" stroke-linecap="round" stroke-linejoin="round" stroke-width="2" transform="translate(1 3)">
      <polyline points="11 13 14 16 22 16 25 13"/>
      <path d="M0,0 L0,1.76" transform="translate(14 6)"/>
      <path d="M0,0 L0,1.76" transform="translate(22 6)"/>
      <polyline points="16 26 8 26 0 34 0 0 36 0 36 16"/>
      <polygon points="44 20 20 20 20 38 38 38 44 44"/>
    </g>
    <g fill="#0E3FF2" fill-rule="nonzero" transform="translate(26 29)">
      <path d="M1.998,0.002 C1.896,0.002 1.794,0.04 1.716,0.12 L0.118,1.718 C-0.038,1.874 -0.038,2.128 0.118,2.284 L1.716,3.882 C1.794,3.96 1.896,4 1.998,4 C2.1,4 2.202,3.962 2.282,3.882 L3.88,2.284 C4.036,2.128 4.036,1.874 3.88,1.718 L2.282,0.12 C2.204,0.04 2.1,0.002 1.998,0.002 L1.998,0.002 Z"/>
      <path d="M2.038,0 C1.936,0 1.834,0.038 1.756,0.118 L0.156,1.716 C-3.05311332e-16,1.872 -3.05311332e-16,2.126 0.156,2.282 L1.756,3.88 C1.834,3.958 1.936,3.998 2.038,3.998 C2.14,3.998 2.242,3.96 2.32,3.88 L3.92,2.282 C4.076,2.126 4.076,1.872 3.92,1.716 L2.32,0.118 C2.242,0.038 2.14,1.11022302e-16 2.038,1.11022302e-16 L2.038,0 Z" transform="translate(5.962 .002)"/>
      <path d="M2.038,0 C1.936,0 1.834,0.038 1.756,0.118 L0.156,1.716 C-2.98372438e-16,1.872 -2.98372438e-16,2.126 0.156,2.282 L1.756,3.88 C1.834,3.958 1.936,3.998 2.038,3.998 C2.14,3.998 2.242,3.96 2.32,3.88 L3.92,2.282 C4.076,2.126 4.076,1.872 3.92,1.716 L2.32,0.118 C2.242,0.038 2.14,1.11022302e-16 2.038,1.11022302e-16 L2.038,0 Z" transform="translate(11.962 .002)"/>
    </g>
    <polygon points="0 0 48 0 48 48 0 48"/>
  </g>
</svg>
