<svg xmlns="http://www.w3.org/2000/svg" width="46" height="48" viewBox="0 0 46 48">
  <g fill="none" fill-rule="evenodd">
    <g stroke="#0E3FF2" stroke-linecap="round" stroke-linejoin="round" stroke-width="2" transform="translate(1 1)">
      <path d="M40,0 L40,3"/>
      <polygon points="40 3 36 10.002 40 14 44 10.002"/>
      <polyline points="36 10.002 36 40 44 40 44 10.002"/>
      <path d="M40,14 L40,36"/>
      <polyline points="36 40 36 44 40 46 44 44 44 40"/>
      <polygon points="30 46 0 46 0 2 26 2 30 6"/>
      <path d="M0,0 L30,0" transform="translate(0 32)"/>
      <path d="M0,0 L30,0" transform="translate(0 38)"/>
      <polygon points="22 20 15 24 8 20 8 12 15 8 22 12"/>
    </g>
    <polygon points="0 0 48 0 48 48 0 48"/>
  </g>
</svg>
