<svg xmlns="http://www.w3.org/2000/svg" width="48" height="46" viewBox="0 0 48 46">
  <g fill="none" fill-rule="evenodd" transform="translate(0 -2)">
    <g stroke="#0E3FF2" stroke-linecap="round" stroke-linejoin="round" stroke-width="2" transform="translate(1 3)">
      <path d="M24,17 L22,17"/>
      <polyline points="0 18 4 0 42 0 46 18"/>
      <polyline points="0 44 2 38 1 31 3 20 5 20 5 29 9 16 12 16 10 29 15 16 18 16 14 32 19 29 21 30 13 40 12 44"/>
      <polyline points="46 44 44 38 45 31 43 20 41 20 41 29 37 16 34 16 36 29 31 16 28 16 32 32 27 29 25 30 33 40 34 44"/>
      <path d="M0,0 L1,0" transform="translate(10 6)"/>
      <path d="M0,0 L1,0" transform="translate(15 6)"/>
      <path d="M0,0 L1,0" transform="translate(20 6)"/>
      <path d="M0,0 L1,0" transform="translate(25 6)"/>
      <path d="M0,0 L1,0" transform="translate(30 6)"/>
      <path d="M0,0 L1,0" transform="translate(35 6)"/>
      <path d="M0,0 L1,0" transform="translate(8 10)"/>
      <path d="M0,0 L1,0" transform="translate(13 10)"/>
      <path d="M0,0 L1,0" transform="translate(18 10)"/>
      <path d="M0,0 L1,0" transform="translate(23 10)"/>
      <path d="M0,0 L1,0" transform="translate(28 10)"/>
      <path d="M0,0 L1,0" transform="translate(33 10)"/>
      <path d="M0,0 L1,0" transform="translate(38 10)"/>
    </g>
    <polygon points="0 0 48 0 48 48 0 48"/>
  </g>
</svg>
